{"asset":{"version":"2.0","generator":"Blockbench 4.11.1 glTF exporter"},"scenes":[{"nodes":[19],"name":"blockbench_export"}],"scene":0,"nodes":[{"translation":[0.03125,-0.3125,0.125],"name":"cube","mesh":0},{"translation":[0,-0.75,0.125],"name":"cube","mesh":1},{"translation":[-0.1875,-0.46875,0.125],"name":"cube","mesh":2},{"name":"wing_right","children":[2]},{"translation":[0.15625,0.15625,0],"name":"wings_right_ext","children":[3]},{"translation":[0.1875,-0.46875,0.125],"name":"cube","mesh":3},{"name":"wing_left","children":[5]},{"translation":[-0.15625,0.15625,0],"name":"wings_left_ext","children":[6]},{"name":"wings","children":[4,7]},{"translation":[0.03125,-0.08333333333333326,0.24479166666666666],"name":"cube","mesh":4},{"translation":[0,0,0.1875],"name":"cube","mesh":5},{"translation":[-0.125,0.29166666666666674,0.05729166666666666],"name":"ear_left","children":[10]},{"name":"cube","mesh":6},{"translation":[0.125,0.32291666666666674,0.05729166666666666],"name":"ear_right","children":[12]},{"name":"head","children":[9,11,13]},{"translation":[0,0.27083333333333326,-0.11979166666666666],"name":"head_ext","children":[14]},{"name":"body","children":[0,1,8,15]},{"name":"body_orbit","children":[16]},{"translation":[0,0.3125,0],"name":"root","children":[17]},{"children":[18]}],"bufferViews":[{"buffer":0,"byteOffset":0,"byteLength":288,"target":34962,"byteStride":12},{"buffer":0,"byteOffset":288,"byteLength":288,"target":34962,"byteStride":12},{"buffer":0,"byteOffset":576,"byteLength":192,"target":34962,"byteStride":8},{"buffer":0,"byteOffset":768,"byteLength":72,"target":34963},{"buffer":0,"byteOffset":840,"byteLength":288,"target":34962,"byteStride":12},{"buffer":0,"byteOffset":1128,"byteLength":288,"target":34962,"byteStride":12},{"buffer":0,"byteOffset":1416,"byteLength":192,"target":34962,"byteStride":8},{"buffer":0,"byteOffset":1608,"byteLength":72,"target":34963},{"buffer":0,"byteOffset":1680,"byteLength":288,"target":34962,"byteStride":12},{"buffer":0,"byteOffset":1968,"byteLength":288,"target":34962,"byteStride":12},{"buffer":0,"byteOffset":2256,"byteLength":192,"target":34962,"byteStride":8},{"buffer":0,"byteOffset":2448,"byteLength":72,"target":34963},{"buffer":0,"byteOffset":2520,"byteLength":288,"target":34962,"byteStride":12},{"buffer":0,"byteOffset":2808,"byteLength":288,"target":34962,"byteStride":12},{"buffer":0,"byteOffset":3096,"byteLength":192,"target":34962,"byteStride":8},{"buffer":0,"byteOffset":3288,"byteLength":72,"target":34963},{"buffer":0,"byteOffset":3360,"byteLength":288,"target":34962,"byteStride":12},{"buffer":0,"byteOffset":3648,"byteLength":288,"target":34962,"byteStride":12},{"buffer":0,"byteOffset":3936,"byteLength":192,"target":34962,"byteStride":8},{"buffer":0,"byteOffset":4128,"byteLength":72,"target":34963},{"buffer":0,"byteOffset":4200,"byteLength":288,"target":34962,"byteStride":12},{"buffer":0,"byteOffset":4488,"byteLength":288,"target":34962,"byteStride":12},{"buffer":0,"byteOffset":4776,"byteLength":192,"target":34962,"byteStride":8},{"buffer":0,"byteOffset":4968,"byteLength":72,"target":34963},{"buffer":0,"byteOffset":5040,"byteLength":288,"target":34962,"byteStride":12},{"buffer":0,"byteOffset":5328,"byteLength":288,"target":34962,"byteStride":12},{"buffer":0,"byteOffset":5616,"byteLength":192,"target":34962,"byteStride":8},{"buffer":0,"byteOffset":5808,"byteLength":72,"target":34963},{"buffer":0,"byteOffset":5880,"byteLength":100},{"buffer":0,"byteOffset":5980,"byteLength":300},{"buffer":0,"byteOffset":6280,"byteLength":100},{"buffer":0,"byteOffset":6380,"byteLength":400},{"buffer":0,"byteOffset":6780,"byteLength":100},{"buffer":0,"byteOffset":6880,"byteLength":300},{"buffer":0,"byteOffset":7180,"byteLength":100},{"buffer":0,"byteOffset":7280,"byteLength":400},{"buffer":0,"byteOffset":7680,"byteLength":100},{"buffer":0,"byteOffset":7780,"byteLength":400},{"buffer":0,"byteOffset":8180,"byteLength":196},{"buffer":0,"byteOffset":8376,"byteLength":784},{"buffer":0,"byteOffset":9160,"byteLength":196},{"buffer":0,"byteOffset":9356,"byteLength":588},{"buffer":0,"byteOffset":9944,"byteLength":72},{"buffer":0,"byteOffset":10016,"byteLength":288},{"buffer":0,"byteOffset":10304,"byteLength":72},{"buffer":0,"byteOffset":10376,"byteLength":288},{"buffer":0,"byteOffset":10664,"byteLength":196},{"buffer":0,"byteOffset":10860,"byteLength":784},{"buffer":0,"byteOffset":11644,"byteLength":4},{"buffer":0,"byteOffset":11648,"byteLength":12},{"buffer":0,"byteOffset":11660,"byteLength":112},{"buffer":0,"byteOffset":11772,"byteLength":448},{"buffer":0,"byteOffset":12220,"byteLength":72},{"buffer":0,"byteOffset":12292,"byteLength":288},{"buffer":0,"byteOffset":12580,"byteLength":16},{"buffer":0,"byteOffset":12596,"byteLength":48},{"buffer":0,"byteOffset":12644,"byteLength":16},{"buffer":0,"byteOffset":12660,"byteLength":48},{"buffer":0,"byteOffset":12708,"byteLength":72},{"buffer":0,"byteOffset":12780,"byteLength":288},{"buffer":0,"byteOffset":13068,"byteLength":16},{"buffer":0,"byteOffset":13084,"byteLength":48},{"buffer":0,"byteOffset":13132,"byteLength":16},{"buffer":0,"byteOffset":13148,"byteLength":48},{"buffer":0,"byteOffset":13196,"byteLength":104},{"buffer":0,"byteOffset":13300,"byteLength":416},{"buffer":0,"byteOffset":13716,"byteLength":16},{"buffer":0,"byteOffset":13732,"byteLength":64},{"buffer":0,"byteOffset":13796,"byteLength":16},{"buffer":0,"byteOffset":13812,"byteLength":48},{"buffer":0,"byteOffset":13860,"byteLength":964},{"buffer":0,"byteOffset":14824,"byteLength":3856},{"buffer":0,"byteOffset":18680,"byteLength":16},{"buffer":0,"byteOffset":18696,"byteLength":64},{"buffer":0,"byteOffset":18760,"byteLength":16},{"buffer":0,"byteOffset":18776,"byteLength":64}],"buffers":[{"byteLength":18840,"uri":"data:application/octet-stream;base64,"}],"accessors":[{"bufferView":0,"componentType":5126,"count":24,"max":[0.125,0.5625,0],"min":[-0.1875,0.25,-0.25],"type":"VEC3"},{"bufferView":1,"componentType":5126,"count":24,"max":[1,1,1],"min":[-1,-1,-1],"type":"VEC3"},{"bufferView":2,"componentType":5126,"count":24,"max":[0.702880859375,0.359130859375],"min":[0.422119140625,0.218994140625],"type":"VEC2"},{"bufferView":3,"componentType":5123,"count":36,"max":[23],"min":[0],"type":"SCALAR"},{"bufferView":4,"componentType":5126,"count":24,"max":[0.125,0.6875,-0.1249374970793724],"min":[-0.125,0.4375,-0.125],"type":"VEC3"},{"bufferView":5,"componentType":5126,"count":24,"max":[1,1,1],"min":[-1,-1,-1],"type":"VEC3"},{"bufferView":6,"componentType":5126,"count":24,"max":[0.609130859375,0.187255859375],"min":[0.484130859375,0.124755859375],"type":"VEC2"},{"bufferView":7,"componentType":5123,"count":36,"max":[23],"min":[0],"type":"SCALAR"},{"bufferView":8,"componentType":5126,"count":24,"max":[1.125,1.1875,-0.1249374970793724],"min":[0.1875,0.125,-0.125],"type":"VEC3"},{"bufferView":9,"componentType":5126,"count":24,"max":[1,1,1],"min":[-1,-1,-1],"type":"VEC3"},{"bufferView":10,"componentType":5126,"count":24,"max":[0.468505859375,0.265380859375],"min":[-0.000244140625,-0.000244140625],"type":"VEC2"},{"bufferView":11,"componentType":5123,"count":36,"max":[23],"min":[0],"type":"SCALAR"},{"bufferView":12,"componentType":5126,"count":24,"max":[-0.1875,1.1875,-0.1249374970793724],"min":[-1.125,0.125,-0.125],"type":"VEC3"},{"bufferView":13,"componentType":5126,"count":24,"max":[1,1,1],"min":[-1,-1,-1],"type":"VEC3"},{"bufferView":14,"componentType":5126,"count":24,"max":[0.468505859375,0.265380859375],"min":[-0.000244140625,-0.000244140625],"type":"VEC2"},{"bufferView":15,"componentType":5123,"count":36,"max":[23],"min":[0],"type":"SCALAR"},{"bufferView":16,"componentType":5126,"count":24,"max":[0.1875,0.4375,0.0625],"min":[-0.25,0.0625,-0.3125],"type":"VEC3"},{"bufferView":17,"componentType":5126,"count":24,"max":[1,1,1],"min":[-1,-1,-1],"type":"VEC3"},{"bufferView":18,"componentType":5126,"count":24,"max":[0.734130859375,0.593505859375],"min":[0.328369140625,0.406494140625],"type":"VEC2"},{"bufferView":19,"componentType":5123,"count":36,"max":[23],"min":[0],"type":"SCALAR"},{"bufferView":20,"componentType":5126,"count":24,"max":[0.0625,0.3125,-0.187437504529953],"min":[-0.1875,-0.125,-0.1875],"type":"VEC3"},{"bufferView":21,"componentType":5126,"count":24,"max":[1,1,1],"min":[-1,-1,-1],"type":"VEC3"},{"bufferView":22,"componentType":5126,"count":24,"max":[0.124755859375,0.609130859375],"min":[-0.000244140625,0.499755859375],"type":"VEC2"},{"bufferView":23,"componentType":5123,"count":36,"max":[23],"min":[0],"type":"SCALAR"},{"bufferView":24,"componentType":5126,"count":24,"max":[0.1875,0.28125,0.0000625000029685907],"min":[-0.0625,-0.15625,0],"type":"VEC3"},{"bufferView":25,"componentType":5126,"count":24,"max":[1,1,1],"min":[-1,-1,-1],"type":"VEC3"},{"bufferView":26,"componentType":5126,"count":24,"max":[0.609130859375,0.109130859375],"min":[0.484130859375,-0.000244140625],"type":"VEC2"},{"bufferView":27,"componentType":5123,"count":36,"max":[23],"min":[0],"type":"SCALAR"},{"bufferView":28,"componentType":5126,"count":25,"max":[0.5],"min":[0],"type":"SCALAR"},{"bufferView":29,"componentType":5126,"count":25,"max":[0,0.3125,0.029999999329447746],"min":[0,0.3125,-0.029999999329447746],"type":"VEC3"},{"bufferView":30,"componentType":5126,"count":25,"max":[0.5],"min":[0],"type":"SCALAR"},{"bufferView":31,"componentType":5126,"count":25,"max":[0.05451450124382973,0,0,1],"min":[-0.05451450124382973,0,0,0.9985129833221436],"type":"VEC4"},{"bufferView":32,"componentType":5126,"count":25,"max":[0.5],"min":[0],"type":"SCALAR"},{"bufferView":33,"componentType":5126,"count":25,"max":[0,0.3843750059604645,0],"min":[0,-0.11812499910593033,0],"type":"VEC3"},{"bufferView":34,"componentType":5126,"count":25,"max":[0.5],"min":[0],"type":"SCALAR"},{"bufferView":35,"componentType":5126,"count":25,"max":[-0.40586110949516296,0.21180644631385803,0.06578106433153152,0.8688510060310364],"min":[-0.7224180102348328,-0.3736995756626129,-0.6039953231811523,0.46313217282295227],"type":"VEC4"},{"bufferView":36,"componentType":5126,"count":25,"max":[0.5],"min":[0],"type":"SCALAR"},{"bufferView":37,"componentType":5126,"count":25,"max":[-0.40586110949516296,0.3736995756626129,0.6039953231811523,0.8688510060310364],"min":[-0.7224180102348328,-0.21180644631385803,-0.06578106433153152,0.46313217282295227],"type":"VEC4"},{"bufferView":38,"componentType":5126,"count":49,"max":[1],"min":[0],"type":"SCALAR"},{"bufferView":39,"componentType":5126,"count":49,"max":[-0.6755902171134949,0,0,0.7372773289680481],"min":[-0.7632324695587158,0,0,0.646124005317688],"type":"VEC4"},{"bufferView":40,"componentType":5126,"count":49,"max":[1],"min":[0],"type":"SCALAR"},{"bufferView":41,"componentType":5126,"count":49,"max":[0,0.24562500417232513,0.00776586914435029],"min":[0,-0.05062500014901161,-0.09375],"type":"VEC3"},{"bufferView":42,"componentType":5126,"count":18,"max":[1],"min":[0],"type":"SCALAR"},{"bufferView":43,"componentType":5126,"count":18,"max":[0.1865316778421402,0.26257193088531494,-0.07601897418498993,0.9325655698776245],"min":[-0.33322691917419434,-0.509890079498291,-0.42963114380836487,0.8452436327934265],"type":"VEC4"},{"bufferView":44,"componentType":5126,"count":18,"max":[1],"min":[0],"type":"SCALAR"},{"bufferView":45,"componentType":5126,"count":18,"max":[0.1865316778421402,0.509890079498291,0.42963114380836487,0.9325655698776245],"min":[-0.33322691917419434,-0.26257193088531494,0.07601897418498993,0.8452436327934265],"type":"VEC4"},{"bufferView":46,"componentType":5126,"count":49,"max":[1],"min":[0],"type":"SCALAR"},{"bufferView":47,"componentType":5126,"count":49,"max":[0,0,0,1],"min":[-0.12619896233081818,0,0,0.992004930973053],"type":"VEC4"},{"bufferView":48,"componentType":5126,"count":1,"max":[0],"min":[0],"type":"SCALAR"},{"bufferView":49,"componentType":5126,"count":1,"max":[0,0,-0.2593750059604645],"min":[0,0,-0.2593750059604645],"type":"VEC3"},{"bufferView":50,"componentType":5126,"count":28,"max":[10],"min":[0],"type":"SCALAR"},{"bufferView":51,"componentType":5126,"count":28,"max":[0.04334306716918945,0.026176948100328445,0.04343387112021446,0.9996573328971863],"min":[-0.00002969679917441681,-0.026176931336522102,-0.04343045502901077,0.9981104135513306],"type":"VEC4"},{"bufferView":52,"componentType":5126,"count":18,"max":[10],"min":[0],"type":"SCALAR"},{"bufferView":53,"componentType":5126,"count":18,"max":[0.12235292047262192,0.6418353319168091,-0.08013539761304855,0.7636523246765137],"min":[0.1030251756310463,0.6322968006134033,-0.09404025971889496,0.7511548399925232],"type":"VEC4"},{"bufferView":54,"componentType":5126,"count":4,"max":[10],"min":[0],"type":"SCALAR"},{"bufferView":55,"componentType":5126,"count":4,"max":[-0.026875000447034836,0,0.3125],"min":[-0.026875000447034836,0,0.3125],"type":"VEC3"},{"bufferView":56,"componentType":5126,"count":4,"max":[10],"min":[0],"type":"SCALAR"},{"bufferView":57,"componentType":5126,"count":4,"max":[1,1,1],"min":[1,1,1],"type":"VEC3"},{"bufferView":58,"componentType":5126,"count":18,"max":[10],"min":[0],"type":"SCALAR"},{"bufferView":59,"componentType":5126,"count":18,"max":[0.12235292047262192,-0.6322968006134033,0.09404025971889496,0.7636523246765137],"min":[0.1030251756310463,-0.6418353319168091,0.08013539761304855,0.7511548399925232],"type":"VEC4"},{"bufferView":60,"componentType":5126,"count":4,"max":[10],"min":[0],"type":"SCALAR"},{"bufferView":61,"componentType":5126,"count":4,"max":[0.026875000447034836,0,0.3125],"min":[0.026875000447034836,0,0.3125],"type":"VEC3"},{"bufferView":62,"componentType":5126,"count":4,"max":[10],"min":[0],"type":"SCALAR"},{"bufferView":63,"componentType":5126,"count":4,"max":[1,1,1],"min":[1,1,1],"type":"VEC3"},{"bufferView":64,"componentType":5126,"count":26,"max":[10],"min":[0],"type":"SCALAR"},{"bufferView":65,"componentType":5126,"count":26,"max":[-6.070848583860611e-17,0.13052618503570557,-0.9914448857307434,-6.001819038254081e-18],"min":[-6.093748913683019e-17,0.0980171412229538,-0.9951847195625305,-7.992424219279267e-18],"type":"VEC4"},{"bufferView":66,"componentType":5126,"count":4,"max":[10],"min":[0],"type":"SCALAR"},{"bufferView":67,"componentType":5126,"count":4,"max":[0,0,1,6.123234262925839e-17],"min":[0,0,1,6.123234262925839e-17],"type":"VEC4"},{"bufferView":68,"componentType":5126,"count":4,"max":[10],"min":[0],"type":"SCALAR"},{"bufferView":69,"componentType":5126,"count":4,"max":[0,0.6875,0],"min":[0,0.6875,0],"type":"VEC3"},{"bufferView":70,"componentType":5126,"count":241,"max":[10],"min":[0],"type":"SCALAR"},{"bufferView":71,"componentType":5126,"count":241,"max":[0.026137812063097954,0.04315407946705818,0.9996834397315979,0.04341528192162514],"min":[-0.026176948100328445,0.000007515576271543978,0.9981245994567871,-0.00020289987151045352],"type":"VEC4"},{"bufferView":72,"componentType":5126,"count":4,"max":[10],"min":[0],"type":"SCALAR"},{"bufferView":73,"componentType":5126,"count":4,"max":[-0.14402733743190765,-0.3176785409450531,0.04888861998915672,0.9359200596809387],"min":[-0.14402733743190765,-0.3176785409450531,0.04888861998915672,0.9359200596809387],"type":"VEC4"},{"bufferView":74,"componentType":5126,"count":4,"max":[10],"min":[0],"type":"SCALAR"},{"bufferView":75,"componentType":5126,"count":4,"max":[-0.14402733743190765,0.3176785409450531,-0.04888861998915672,0.9359200596809387],"min":[-0.14402733743190765,0.3176785409450531,-0.04888861998915672,0.9359200596809387],"type":"VEC4"}],"materials":[{"pbrMetallicRoughness":{"metallicFactor":0,"roughnessFactor":1,"baseColorTexture":{"index":0}},"alphaMode":"MASK","alphaCutoff":0.05,"doubleSided":true}],"textures":[{"sampler":0,"source":0,"name":"texture"}],"samplers":[{"magFilter":9728,"minFilter":9728,"wrapS":33071,"wrapT":33071}],"images":[{"mimeType":"image/png","uri":"data:image/png;base64,"}],"meshes":[{"primitives":[{"mode":4,"attributes":{"POSITION":0,"NORMAL":1,"TEXCOORD_0":2},"indices":3,"material":0}]},{"primitives":[{"mode":4,"attributes":{"POSITION":4,"NORMAL":5,"TEXCOORD_0":6},"indices":7,"material":0}]},{"primitives":[{"mode":4,"attributes":{"POSITION":8,"NORMAL":9,"TEXCOORD_0":10},"indices":11,"material":0}]},{"primitives":[{"mode":4,"attributes":{"POSITION":12,"NORMAL":13,"TEXCOORD_0":14},"indices":15,"material":0}]},{"primitives":[{"mode":4,"attributes":{"POSITION":16,"NORMAL":17,"TEXCOORD_0":18},"indices":19,"material":0}]},{"primitives":[{"mode":4,"attributes":{"POSITION":20,"NORMAL":21,"TEXCOORD_0":22},"indices":23,"material":0}]},{"primitives":[{"mode":4,"attributes":{"POSITION":24,"NORMAL":25,"TEXCOORD_0":26},"indices":27,"material":0}]}],"animations":[{"name":"idle","samplers":[{"input":28,"output":29,"interpolation":"LINEAR"},{"input":30,"output":31,"interpolation":"LINEAR"},{"input":32,"output":33,"interpolation":"LINEAR"},{"input":34,"output":35,"interpolation":"LINEAR"},{"input":36,"output":37,"interpolation":"LINEAR"}],"channels":[{"sampler":0,"target":{"node":18,"path":"translation"}},{"sampler":1,"target":{"node":17,"path":"rotation"}},{"sampler":2,"target":{"node":17,"path":"translation"}},{"sampler":3,"target":{"node":3,"path":"rotation"}},{"sampler":4,"target":{"node":6,"path":"rotation"}}]},{"name":"fly","samplers":[{"input":38,"output":39,"interpolation":"LINEAR"},{"input":40,"output":41,"interpolation":"LINEAR"},{"input":42,"output":43,"interpolation":"LINEAR"},{"input":44,"output":45,"interpolation":"LINEAR"},{"input":46,"output":47,"interpolation":"LINEAR"},{"input":48,"output":49,"interpolation":"LINEAR"}],"channels":[{"sampler":0,"target":{"node":17,"path":"rotation"}},{"sampler":1,"target":{"node":17,"path":"translation"}},{"sampler":2,"target":{"node":3,"path":"rotation"}},{"sampler":3,"target":{"node":6,"path":"rotation"}},{"sampler":4,"target":{"node":14,"path":"rotation"}},{"sampler":5,"target":{"node":14,"path":"translation"}}]},{"name":"hanging","samplers":[{"input":50,"output":51,"interpolation":"LINEAR"},{"input":52,"output":53,"interpolation":"LINEAR"},{"input":54,"output":55,"interpolation":"LINEAR"},{"input":56,"output":57,"interpolation":"LINEAR"},{"input":58,"output":59,"interpolation":"LINEAR"},{"input":60,"output":61,"interpolation":"LINEAR"},{"input":62,"output":63,"interpolation":"LINEAR"},{"input":64,"output":65,"interpolation":"LINEAR"},{"input":66,"output":67,"interpolation":"LINEAR"},{"input":68,"output":69,"interpolation":"LINEAR"},{"input":70,"output":71,"interpolation":"LINEAR"},{"input":72,"output":73,"interpolation":"LINEAR"},{"input":74,"output":75,"interpolation":"LINEAR"}],"channels":[{"sampler":0,"target":{"node":16,"path":"rotation"}},{"sampler":1,"target":{"node":3,"path":"rotation"}},{"sampler":2,"target":{"node":3,"path":"translation"}},{"sampler":3,"target":{"node":3,"path":"scale"}},{"sampler":4,"target":{"node":6,"path":"rotation"}},{"sampler":5,"target":{"node":6,"path":"translation"}},{"sampler":6,"target":{"node":6,"path":"scale"}},{"sampler":7,"target":{"node":14,"path":"rotation"}},{"sampler":8,"target":{"node":17,"path":"rotation"}},{"sampler":9,"target":{"node":17,"path":"translation"}},{"sampler":10,"target":{"node":15,"path":"rotation"}},{"sampler":11,"target":{"node":11,"path":"rotation"}},{"sampler":12,"target":{"node":13,"path":"rotation"}}]}]}