{"asset":{"version":"2.0","generator":"Blockbench 4.11.1 glTF exporter"},"scenes":[{"nodes":[33],"name":"blockbench_export"}],"scene":0,"nodes":[{"name":"cube","mesh":0},{"name":"ear_right","children":[0]},{"translation":[0.15625,0.4375,-0.15625],"name":"ear_right_ext","children":[1]},{"name":"cube","mesh":1},{"name":"ear_left","children":[3]},{"translation":[-0.15625,0.4375,-0.15625],"name":"ear_left_ext","children":[4]},{"translation":[-0.0625,-0.0625,-0.375],"name":"cube","mesh":2},{"translation":[0,-0.0625,-0.875],"name":"cube","mesh":3},{"name":"head","children":[2,5,6,7]},{"translation":[0,0.125,-0.1875],"name":"head_ext","children":[8]},{"name":"cube","mesh":4},{"name":"tail","children":[10]},{"translation":[0,0.1875,0.3125],"name":"tail_ext","children":[11]},{"translation":[0,-0.0625,0.125],"name":"cube","mesh":5},{"name":"body","children":[9,12,13]},{"name":"cube","mesh":6},{"name":"cube","mesh":7},{"name":"leg_back_left","children":[15,16]},{"translation":[-0.28125,-0.171875,0.15625],"name":"leg_back_left_ext","children":[17]},{"name":"cube","mesh":8},{"name":"cube","mesh":9},{"name":"leg_back_right","children":[19,20]},{"translation":[0.28125,-0.171875,0.15625],"name":"leg_back_right_ext","children":[21]},{"name":"cube","mesh":10},{"name":"leg_front_right","children":[23]},{"translation":[0.171875,-0.21875,-0.3125],"name":"leg_front_right_ext","children":[24]},{"name":"cube","mesh":11},{"name":"leg_front_left","children":[26]},{"translation":[-0.171875,-0.21875,-0.3125],"name":"leg_front_left_ext","children":[27]},{"name":"legs","children":[18,22,25,28]},{"name":"body_main","children":[14,29]},{"translation":[0,0.3125,0.0625],"name":"body_orbit","children":[30]},{"name":"root","children":[31]},{"children":[32]}],"bufferViews":[{"buffer":0,"byteOffset":0,"byteLength":288,"target":34962,"byteStride":12},{"buffer":0,"byteOffset":288,"byteLength":288,"target":34962,"byteStride":12},{"buffer":0,"byteOffset":576,"byteLength":192,"target":34962,"byteStride":8},{"buffer":0,"byteOffset":768,"byteLength":72,"target":34963},{"buffer":0,"byteOffset":840,"byteLength":288,"target":34962,"byteStride":12},{"buffer":0,"byteOffset":1128,"byteLength":288,"target":34962,"byteStride":12},{"buffer":0,"byteOffset":1416,"byteLength":192,"target":34962,"byteStride":8},{"buffer":0,"byteOffset":1608,"byteLength":72,"target":34963},{"buffer":0,"byteOffset":1680,"byteLength":288,"target":34962,"byteStride":12},{"buffer":0,"byteOffset":1968,"byteLength":288,"target":34962,"byteStride":12},{"buffer":0,"byteOffset":2256,"byteLength":192,"target":34962,"byteStride":8},{"buffer":0,"byteOffset":2448,"byteLength":72,"target":34963},{"buffer":0,"byteOffset":2520,"byteLength":288,"target":34962,"byteStride":12},{"buffer":0,"byteOffset":2808,"byteLength":288,"target":34962,"byteStride":12},{"buffer":0,"byteOffset":3096,"byteLength":192,"target":34962,"byteStride":8},{"buffer":0,"byteOffset":3288,"byteLength":72,"target":34963},{"buffer":0,"byteOffset":3360,"byteLength":288,"target":34962,"byteStride":12},{"buffer":0,"byteOffset":3648,"byteLength":288,"target":34962,"byteStride":12},{"buffer":0,"byteOffset":3936,"byteLength":192,"target":34962,"byteStride":8},{"buffer":0,"byteOffset":4128,"byteLength":72,"target":34963},{"buffer":0,"byteOffset":4200,"byteLength":288,"target":34962,"byteStride":12},{"buffer":0,"byteOffset":4488,"byteLength":288,"target":34962,"byteStride":12},{"buffer":0,"byteOffset":4776,"byteLength":192,"target":34962,"byteStride":8},{"buffer":0,"byteOffset":4968,"byteLength":72,"target":34963},{"buffer":0,"byteOffset":5040,"byteLength":288,"target":34962,"byteStride":12},{"buffer":0,"byteOffset":5328,"byteLength":288,"target":34962,"byteStride":12},{"buffer":0,"byteOffset":5616,"byteLength":192,"target":34962,"byteStride":8},{"buffer":0,"byteOffset":5808,"byteLength":72,"target":34963},{"buffer":0,"byteOffset":5880,"byteLength":288,"target":34962,"byteStride":12},{"buffer":0,"byteOffset":6168,"byteLength":288,"target":34962,"byteStride":12},{"buffer":0,"byteOffset":6456,"byteLength":192,"target":34962,"byteStride":8},{"buffer":0,"byteOffset":6648,"byteLength":72,"target":34963},{"buffer":0,"byteOffset":6720,"byteLength":288,"target":34962,"byteStride":12},{"buffer":0,"byteOffset":7008,"byteLength":288,"target":34962,"byteStride":12},{"buffer":0,"byteOffset":7296,"byteLength":192,"target":34962,"byteStride":8},{"buffer":0,"byteOffset":7488,"byteLength":72,"target":34963},{"buffer":0,"byteOffset":7560,"byteLength":288,"target":34962,"byteStride":12},{"buffer":0,"byteOffset":7848,"byteLength":288,"target":34962,"byteStride":12},{"buffer":0,"byteOffset":8136,"byteLength":192,"target":34962,"byteStride":8},{"buffer":0,"byteOffset":8328,"byteLength":72,"target":34963},{"buffer":0,"byteOffset":8400,"byteLength":288,"target":34962,"byteStride":12},{"buffer":0,"byteOffset":8688,"byteLength":288,"target":34962,"byteStride":12},{"buffer":0,"byteOffset":8976,"byteLength":192,"target":34962,"byteStride":8},{"buffer":0,"byteOffset":9168,"byteLength":72,"target":34963},{"buffer":0,"byteOffset":9240,"byteLength":288,"target":34962,"byteStride":12},{"buffer":0,"byteOffset":9528,"byteLength":288,"target":34962,"byteStride":12},{"buffer":0,"byteOffset":9816,"byteLength":192,"target":34962,"byteStride":8},{"buffer":0,"byteOffset":10008,"byteLength":72,"target":34963},{"buffer":0,"byteOffset":10080,"byteLength":196},{"buffer":0,"byteOffset":10276,"byteLength":784},{"buffer":0,"byteOffset":11060,"byteLength":196},{"buffer":0,"byteOffset":11256,"byteLength":588},{"buffer":0,"byteOffset":11844,"byteLength":196},{"buffer":0,"byteOffset":12040,"byteLength":784},{"buffer":0,"byteOffset":12824,"byteLength":196},{"buffer":0,"byteOffset":13020,"byteLength":784},{"buffer":0,"byteOffset":13804,"byteLength":196},{"buffer":0,"byteOffset":14000,"byteLength":784},{"buffer":0,"byteOffset":14784,"byteLength":100},{"buffer":0,"byteOffset":14884,"byteLength":400},{"buffer":0,"byteOffset":15284,"byteLength":100},{"buffer":0,"byteOffset":15384,"byteLength":300},{"buffer":0,"byteOffset":15684,"byteLength":64},{"buffer":0,"byteOffset":15748,"byteLength":256},{"buffer":0,"byteOffset":16004,"byteLength":100},{"buffer":0,"byteOffset":16104,"byteLength":400},{"buffer":0,"byteOffset":16504,"byteLength":100},{"buffer":0,"byteOffset":16604,"byteLength":400},{"buffer":0,"byteOffset":17004,"byteLength":100},{"buffer":0,"byteOffset":17104,"byteLength":400},{"buffer":0,"byteOffset":17504,"byteLength":100},{"buffer":0,"byteOffset":17604,"byteLength":300},{"buffer":0,"byteOffset":17904,"byteLength":100},{"buffer":0,"byteOffset":18004,"byteLength":400},{"buffer":0,"byteOffset":18404,"byteLength":100},{"buffer":0,"byteOffset":18504,"byteLength":300},{"buffer":0,"byteOffset":18804,"byteLength":68},{"buffer":0,"byteOffset":18872,"byteLength":272},{"buffer":0,"byteOffset":19144,"byteLength":68},{"buffer":0,"byteOffset":19212,"byteLength":204},{"buffer":0,"byteOffset":19416,"byteLength":68},{"buffer":0,"byteOffset":19484,"byteLength":272},{"buffer":0,"byteOffset":19756,"byteLength":68},{"buffer":0,"byteOffset":19824,"byteLength":204}],"buffers":[{"byteLength":20028,"uri":"data:application/octet-stream;base64,"}],"accessors":[{"bufferView":0,"componentType":5126,"count":24,"max":[0.125,0.4375,0.03125],"min":[-0.125,0,-0.03125],"type":"VEC3"},{"bufferView":1,"componentType":5126,"count":24,"max":[1,1,1],"min":[-1,-1,-1],"type":"VEC3"},{"bufferView":2,"componentType":5126,"count":24,"max":[0.156005859375,0.124755859375],"min":[0.000244140625,0.000244140625],"type":"VEC2"},{"bufferView":3,"componentType":5123,"count":36,"max":[23],"min":[0],"type":"SCALAR"},{"bufferView":4,"componentType":5126,"count":24,"max":[0.125,0.4375,0.03125],"min":[-0.125,0,-0.03125],"type":"VEC3"},{"bufferView":5,"componentType":5126,"count":24,"max":[1,1,1],"min":[-1,-1,-1],"type":"VEC3"},{"bufferView":6,"componentType":5126,"count":24,"max":[0.156005859375,0.124755859375],"min":[0.000244140625,0.000244140625],"type":"VEC2"},{"bufferView":7,"componentType":5123,"count":36,"max":[23],"min":[0],"type":"SCALAR"},{"bufferView":8,"componentType":5126,"count":24,"max":[0.375,0.5,0.4375],"min":[-0.25,0,-0.0625],"type":"VEC3"},{"bufferView":9,"componentType":5126,"count":24,"max":[1,1,1],"min":[-1,-1,-1],"type":"VEC3"},{"bufferView":10,"componentType":5126,"count":24,"max":[0.562255859375,0.577880859375],"min":[0.000244140625,0.328369140625],"type":"VEC2"},{"bufferView":11,"componentType":5123,"count":36,"max":[23],"min":[0],"type":"SCALAR"},{"bufferView":12,"componentType":5126,"count":24,"max":[0.1875,0.1875,0.4375],"min":[-0.1875,0,0.3125],"type":"VEC3"},{"bufferView":13,"componentType":5126,"count":24,"max":[1,1,1],"min":[-1,-1,-1],"type":"VEC3"},{"bufferView":14,"componentType":5126,"count":24,"max":[0.890380859375,0.265380859375],"min":[0.640869140625,0.187744140625],"type":"VEC2"},{"bufferView":15,"componentType":5123,"count":36,"max":[23],"min":[0],"type":"SCALAR"},{"bufferView":16,"componentType":5126,"count":24,"max":[0.15625,0.1875,0.1875],"min":[-0.15625,-0.125,-0.0625],"type":"VEC3"},{"bufferView":17,"componentType":5126,"count":24,"max":[1,1,1],"min":[-1,-1,-1],"type":"VEC3"},{"bufferView":18,"componentType":5126,"count":24,"max":[0.999755859375,0.640380859375],"min":[0.718994140625,0.500244140625],"type":"VEC2"},{"bufferView":19,"componentType":5123,"count":36,"max":[23],"min":[0],"type":"SCALAR"},{"bufferView":20,"componentType":5126,"count":24,"max":[0.25,0.3125,0.25],"min":[-0.25,-0.1875,-0.5],"type":"VEC3"},{"bufferView":21,"componentType":5126,"count":24,"max":[1,1,1],"min":[-1,-1,-1],"type":"VEC3"},{"bufferView":22,"componentType":5126,"count":24,"max":[0.624755859375,0.312255859375],"min":[0.000244140625,0.000244140625],"type":"VEC2"},{"bufferView":23,"componentType":5123,"count":36,"max":[23],"min":[0],"type":"SCALAR"},{"bufferView":24,"componentType":5126,"count":24,"max":[0.09375,0.234375,0.15625],"min":[-0.09375,-0.140625,-0.15625],"type":"VEC3"},{"bufferView":25,"componentType":5126,"count":24,"max":[1,1,1],"min":[-1,-1,-1],"type":"VEC3"},{"bufferView":26,"componentType":5126,"count":24,"max":[0.812255859375,0.499755859375],"min":[0.562744140625,0.328369140625],"type":"VEC2"},{"bufferView":27,"componentType":5123,"count":36,"max":[23],"min":[0],"type":"SCALAR"},{"bufferView":28,"componentType":5126,"count":24,"max":[0.09375,0.046875,-0.15625],"min":[-0.09375,-0.140625,-0.34375],"type":"VEC3"},{"bufferView":29,"componentType":5126,"count":24,"max":[1,1,1],"min":[-1,-1,-1],"type":"VEC3"},{"bufferView":30,"componentType":5126,"count":24,"max":[0.906005859375,0.093505859375],"min":[0.718994140625,0.000244140625],"type":"VEC2"},{"bufferView":31,"componentType":5123,"count":36,"max":[23],"min":[0],"type":"SCALAR"},{"bufferView":32,"componentType":5126,"count":24,"max":[0.09375,0.234375,0.15625],"min":[-0.09375,-0.140625,-0.15625],"type":"VEC3"},{"bufferView":33,"componentType":5126,"count":24,"max":[1,1,1],"min":[-1,-1,-1],"type":"VEC3"},{"bufferView":34,"componentType":5126,"count":24,"max":[0.812255859375,0.499755859375],"min":[0.562744140625,0.328369140625],"type":"VEC2"},{"bufferView":35,"componentType":5123,"count":36,"max":[23],"min":[0],"type":"SCALAR"},{"bufferView":36,"componentType":5126,"count":24,"max":[0.09375,0.046875,-0.15625],"min":[-0.09375,-0.140625,-0.34375],"type":"VEC3"},{"bufferView":37,"componentType":5126,"count":24,"max":[1,1,1],"min":[-1,-1,-1],"type":"VEC3"},{"bufferView":38,"componentType":5126,"count":24,"max":[0.906005859375,0.093505859375],"min":[0.718994140625,0.000244140625],"type":"VEC2"},{"bufferView":39,"componentType":5123,"count":36,"max":[23],"min":[0],"type":"SCALAR"},{"bufferView":40,"componentType":5126,"count":24,"max":[0.109375,0.09375,0.0625],"min":[-0.109375,-0.09375,-0.25],"type":"VEC3"},{"bufferView":41,"componentType":5126,"count":24,"max":[1,1,1],"min":[-1,-1,-1],"type":"VEC3"},{"bufferView":42,"componentType":5126,"count":24,"max":[0.515380859375,0.734130859375],"min":[0.265869140625,0.609619140625],"type":"VEC2"},{"bufferView":43,"componentType":5123,"count":36,"max":[23],"min":[0],"type":"SCALAR"},{"bufferView":44,"componentType":5126,"count":24,"max":[0.109375,0.09375,0.0625],"min":[-0.109375,-0.09375,-0.25],"type":"VEC3"},{"bufferView":45,"componentType":5126,"count":24,"max":[1,1,1],"min":[-1,-1,-1],"type":"VEC3"},{"bufferView":46,"componentType":5126,"count":24,"max":[0.515380859375,0.734130859375],"min":[0.265869140625,0.609619140625],"type":"VEC2"},{"bufferView":47,"componentType":5123,"count":36,"max":[23],"min":[0],"type":"SCALAR"},{"bufferView":48,"componentType":5126,"count":49,"max":[2],"min":[0],"type":"SCALAR"},{"bufferView":49,"componentType":5126,"count":49,"max":[0.019633691757917404,0,0,1],"min":[0,0,0,0.9998072385787964],"type":"VEC4"},{"bufferView":50,"componentType":5126,"count":49,"max":[2],"min":[0],"type":"SCALAR"},{"bufferView":51,"componentType":5126,"count":49,"max":[0,0,0],"min":[0,-0.015625,0],"type":"VEC3"},{"bufferView":52,"componentType":5126,"count":49,"max":[2],"min":[0],"type":"SCALAR"},{"bufferView":53,"componentType":5126,"count":49,"max":[0.007330317050218582,0,0,1],"min":[-0.007330317050218582,0,0,0.9999731183052063],"type":"VEC4"},{"bufferView":54,"componentType":5126,"count":49,"max":[2],"min":[0],"type":"SCALAR"},{"bufferView":55,"componentType":5126,"count":49,"max":[0.035946037620306015,0,0,1],"min":[-0.03603324666619301,0,0,0.9993506073951721],"type":"VEC4"},{"bufferView":56,"componentType":5126,"count":49,"max":[2],"min":[0],"type":"SCALAR"},{"bufferView":57,"componentType":5126,"count":49,"max":[0.035946037620306015,0,0,1],"min":[-0.03603324666619301,0,0,0.9993506073951721],"type":"VEC4"},{"bufferView":58,"componentType":5126,"count":25,"max":[1],"min":[0],"type":"SCALAR"},{"bufferView":59,"componentType":5126,"count":25,"max":[0.10886687785387039,0,0,1],"min":[-0.10886687785387039,0,0,0.9940563440322876],"type":"VEC4"},{"bufferView":60,"componentType":5126,"count":25,"max":[1],"min":[0],"type":"SCALAR"},{"bufferView":61,"componentType":5126,"count":25,"max":[0,0.4481250047683716,0.0018749999580904841],"min":[0,-0.06187500059604645,-0.06750000268220901],"type":"VEC3"},{"bufferView":62,"componentType":5126,"count":16,"max":[1],"min":[0],"type":"SCALAR"},{"bufferView":63,"componentType":5126,"count":16,"max":[0,0,0,1],"min":[-0.08280820399522781,0,0,0.9965655207633972],"type":"VEC4"},{"bufferView":64,"componentType":5126,"count":25,"max":[1],"min":[0],"type":"SCALAR"},{"bufferView":65,"componentType":5126,"count":25,"max":[0.5312510132789612,-0.16653411090373993,-0.22676962614059448,0.84698486328125],"min":[0.40447402000427246,-0.25998634099960327,-0.2387365996837616,0.7956403493881226],"type":"VEC4"},{"bufferView":66,"componentType":5126,"count":25,"max":[1],"min":[0],"type":"SCALAR"},{"bufferView":67,"componentType":5126,"count":25,"max":[0.5312510132789612,0.25998634099960327,0.2387365996837616,0.84698486328125],"min":[0.40447402000427246,0.16653411090373993,0.22676962614059448,0.7956403493881226],"type":"VEC4"},{"bufferView":68,"componentType":5126,"count":25,"max":[1],"min":[0],"type":"SCALAR"},{"bufferView":69,"componentType":5126,"count":25,"max":[0.18780989944934845,0,0,1],"min":[-0.7489557266235352,0,0,0.6626200675964355],"type":"VEC4"},{"bufferView":70,"componentType":5126,"count":25,"max":[1],"min":[0],"type":"SCALAR"},{"bufferView":71,"componentType":5126,"count":25,"max":[-0.28125,-0.12312500178813934,0.40687501430511475],"min":[-0.28125,-0.36000001430511475,0.10750000178813934],"type":"VEC3"},{"bufferView":72,"componentType":5126,"count":25,"max":[1],"min":[0],"type":"SCALAR"},{"bufferView":73,"componentType":5126,"count":25,"max":[0.18780989944934845,0,0,1],"min":[-0.7489557266235352,0,0,0.6626200675964355],"type":"VEC4"},{"bufferView":74,"componentType":5126,"count":25,"max":[1],"min":[0],"type":"SCALAR"},{"bufferView":75,"componentType":5126,"count":25,"max":[0.28125,-0.12312500178813934,0.40687501430511475],"min":[0.28125,-0.36000001430511475,0.10750000178813934],"type":"VEC3"},{"bufferView":76,"componentType":5126,"count":17,"max":[1],"min":[0],"type":"SCALAR"},{"bufferView":77,"componentType":5126,"count":17,"max":[0.1110353097319603,0,0,1],"min":[-0.7660444378852844,0,0,0.6427876353263855],"type":"VEC4"},{"bufferView":78,"componentType":5126,"count":17,"max":[1],"min":[0],"type":"SCALAR"},{"bufferView":79,"componentType":5126,"count":17,"max":[0,0.12781250476837158,0.2515625059604645],"min":[0,-0.0625,-0.09531249850988388],"type":"VEC3"},{"bufferView":80,"componentType":5126,"count":17,"max":[1],"min":[0],"type":"SCALAR"},{"bufferView":81,"componentType":5126,"count":17,"max":[0.1110353097319603,0,0,1],"min":[-0.7660444378852844,0,0,0.6427876353263855],"type":"VEC4"},{"bufferView":82,"componentType":5126,"count":17,"max":[1],"min":[0],"type":"SCALAR"},{"bufferView":83,"componentType":5126,"count":17,"max":[0,0.12781250476837158,0.2515625059604645],"min":[0,-0.0625,-0.09531249850988388],"type":"VEC3"}],"materials":[{"pbrMetallicRoughness":{"metallicFactor":0,"roughnessFactor":1,"baseColorTexture":{"index":0}},"alphaMode":"MASK","alphaCutoff":0.05,"doubleSided":true}],"textures":[{"sampler":0,"source":0,"name":"rabbit.png"}],"samplers":[{"magFilter":9728,"minFilter":9728,"wrapS":33071,"wrapT":33071}],"images":[{"mimeType":"image/png","uri":"data:image/png;base64,"}],"meshes":[{"primitives":[{"mode":4,"attributes":{"POSITION":0,"NORMAL":1,"TEXCOORD_0":2},"indices":3,"material":0}]},{"primitives":[{"mode":4,"attributes":{"POSITION":4,"NORMAL":5,"TEXCOORD_0":6},"indices":7,"material":0}]},{"primitives":[{"mode":4,"attributes":{"POSITION":8,"NORMAL":9,"TEXCOORD_0":10},"indices":11,"material":0}]},{"primitives":[{"mode":4,"attributes":{"POSITION":12,"NORMAL":13,"TEXCOORD_0":14},"indices":15,"material":0}]},{"primitives":[{"mode":4,"attributes":{"POSITION":16,"NORMAL":17,"TEXCOORD_0":18},"indices":19,"material":0}]},{"primitives":[{"mode":4,"attributes":{"POSITION":20,"NORMAL":21,"TEXCOORD_0":22},"indices":23,"material":0}]},{"primitives":[{"mode":4,"attributes":{"POSITION":24,"NORMAL":25,"TEXCOORD_0":26},"indices":27,"material":0}]},{"primitives":[{"mode":4,"attributes":{"POSITION":28,"NORMAL":29,"TEXCOORD_0":30},"indices":31,"material":0}]},{"primitives":[{"mode":4,"attributes":{"POSITION":32,"NORMAL":33,"TEXCOORD_0":34},"indices":35,"material":0}]},{"primitives":[{"mode":4,"attributes":{"POSITION":36,"NORMAL":37,"TEXCOORD_0":38},"indices":39,"material":0}]},{"primitives":[{"mode":4,"attributes":{"POSITION":40,"NORMAL":41,"TEXCOORD_0":42},"indices":43,"material":0}]},{"primitives":[{"mode":4,"attributes":{"POSITION":44,"NORMAL":45,"TEXCOORD_0":46},"indices":47,"material":0}]}],"animations":[{"name":"idle","samplers":[{"input":48,"output":49,"interpolation":"LINEAR"},{"input":50,"output":51,"interpolation":"LINEAR"},{"input":52,"output":53,"interpolation":"LINEAR"},{"input":54,"output":55,"interpolation":"LINEAR"},{"input":56,"output":57,"interpolation":"LINEAR"}],"channels":[{"sampler":0,"target":{"node":14,"path":"rotation"}},{"sampler":1,"target":{"node":14,"path":"translation"}},{"sampler":2,"target":{"node":8,"path":"rotation"}},{"sampler":3,"target":{"node":1,"path":"rotation"}},{"sampler":4,"target":{"node":4,"path":"rotation"}}]},{"name":"hop","samplers":[{"input":58,"output":59,"interpolation":"LINEAR"},{"input":60,"output":61,"interpolation":"LINEAR"},{"input":62,"output":63,"interpolation":"LINEAR"},{"input":64,"output":65,"interpolation":"LINEAR"},{"input":66,"output":67,"interpolation":"LINEAR"},{"input":68,"output":69,"interpolation":"LINEAR"},{"input":70,"output":71,"interpolation":"LINEAR"},{"input":72,"output":73,"interpolation":"LINEAR"},{"input":74,"output":75,"interpolation":"LINEAR"},{"input":76,"output":77,"interpolation":"LINEAR"},{"input":78,"output":79,"interpolation":"LINEAR"},{"input":80,"output":81,"interpolation":"LINEAR"},{"input":82,"output":83,"interpolation":"LINEAR"}],"channels":[{"sampler":0,"target":{"node":30,"path":"rotation"}},{"sampler":1,"target":{"node":30,"path":"translation"}},{"sampler":2,"target":{"node":8,"path":"rotation"}},{"sampler":3,"target":{"node":1,"path":"rotation"}},{"sampler":4,"target":{"node":4,"path":"rotation"}},{"sampler":5,"target":{"node":18,"path":"rotation"}},{"sampler":6,"target":{"node":18,"path":"translation"}},{"sampler":7,"target":{"node":22,"path":"rotation"}},{"sampler":8,"target":{"node":22,"path":"translation"}},{"sampler":9,"target":{"node":24,"path":"rotation"}},{"sampler":10,"target":{"node":24,"path":"translation"}},{"sampler":11,"target":{"node":27,"path":"rotation"}},{"sampler":12,"target":{"node":27,"path":"translation"}}]}]}