{"asset":{"version":"2.0","generator":"Blockbench 4.11.1 glTF exporter"},"scenes":[{"nodes":[27],"name":"blockbench_export"}],"scene":0,"nodes":[{"translation":[0,0,-0.046875],"name":"cube","mesh":0},{"translation":[0,0,-0.046875],"name":"cube","mesh":1},{"translation":[0,0,-0.046875],"name":"cube","mesh":2},{"translation":[0,0.5625,0],"name":"cube","mesh":3},{"name":"body","children":[0,1,2,3]},{"name":"cube","mesh":4},{"name":"tentacle_front_right","children":[5]},{"translation":[0.125,-0.010416666666666519,-0.21875],"name":"tentacle_front_right_ext","children":[6]},{"name":"cube","mesh":5},{"name":"tentacle_front_left","children":[8]},{"translation":[-0.125,-0.010416666666666519,-0.21875],"name":"tentacle_front_left_ext","children":[9]},{"rotation":[0,-0.7071067811865475,0,0.7071067811865476],"name":"cube","mesh":6},{"name":"tentacle_side_right","children":[11]},{"translation":[0.25,-0.010416666666666519,0],"name":"tentacle_side_right_ext","children":[12]},{"rotation":[0,0.7071067811865475,0,0.7071067811865476],"name":"cube","mesh":7},{"name":"tentacle_side_left","children":[14]},{"translation":[-0.25,-0.010416666666666519,0],"name":"tentacle_side_left_ext","children":[15]},{"rotation":[0,-1,0,6.123233995736766e-17],"name":"cube","mesh":8},{"name":"tentacle_back_right","children":[17]},{"translation":[0.12499999999999997,-0.010416666666666519,0.21875],"name":"tentacle_back_right_ext","children":[18]},{"rotation":[0,1,0,6.123233995736766e-17],"name":"cube","mesh":9},{"name":"tentacle_back_left","children":[20]},{"translation":[-0.12499999999999997,-0.010416666666666519,0.21875],"name":"tentacle_back_left_ext","children":[21]},{"translation":[0,0.010416666666666519,0],"name":"tentacles","children":[7,10,13,16,19,22]},{"name":"body_main","children":[4,23]},{"translation":[0,1.1875,0],"name":"body_orbit","children":[24]},{"name":"root","children":[25]},{"children":[26]}],"bufferViews":[{"buffer":0,"byteOffset":0,"byteLength":288,"target":34962,"byteStride":12},{"buffer":0,"byteOffset":288,"byteLength":288,"target":34962,"byteStride":12},{"buffer":0,"byteOffset":576,"byteLength":192,"target":34962,"byteStride":8},{"buffer":0,"byteOffset":768,"byteLength":72,"target":34963},{"buffer":0,"byteOffset":840,"byteLength":288,"target":34962,"byteStride":12},{"buffer":0,"byteOffset":1128,"byteLength":288,"target":34962,"byteStride":12},{"buffer":0,"byteOffset":1416,"byteLength":192,"target":34962,"byteStride":8},{"buffer":0,"byteOffset":1608,"byteLength":72,"target":34963},{"buffer":0,"byteOffset":1680,"byteLength":288,"target":34962,"byteStride":12},{"buffer":0,"byteOffset":1968,"byteLength":288,"target":34962,"byteStride":12},{"buffer":0,"byteOffset":2256,"byteLength":192,"target":34962,"byteStride":8},{"buffer":0,"byteOffset":2448,"byteLength":72,"target":34963},{"buffer":0,"byteOffset":2520,"byteLength":288,"target":34962,"byteStride":12},{"buffer":0,"byteOffset":2808,"byteLength":288,"target":34962,"byteStride":12},{"buffer":0,"byteOffset":3096,"byteLength":192,"target":34962,"byteStride":8},{"buffer":0,"byteOffset":3288,"byteLength":72,"target":34963},{"buffer":0,"byteOffset":3360,"byteLength":288,"target":34962,"byteStride":12},{"buffer":0,"byteOffset":3648,"byteLength":288,"target":34962,"byteStride":12},{"buffer":0,"byteOffset":3936,"byteLength":192,"target":34962,"byteStride":8},{"buffer":0,"byteOffset":4128,"byteLength":72,"target":34963},{"buffer":0,"byteOffset":4200,"byteLength":288,"target":34962,"byteStride":12},{"buffer":0,"byteOffset":4488,"byteLength":288,"target":34962,"byteStride":12},{"buffer":0,"byteOffset":4776,"byteLength":192,"target":34962,"byteStride":8},{"buffer":0,"byteOffset":4968,"byteLength":72,"target":34963},{"buffer":0,"byteOffset":5040,"byteLength":288,"target":34962,"byteStride":12},{"buffer":0,"byteOffset":5328,"byteLength":288,"target":34962,"byteStride":12},{"buffer":0,"byteOffset":5616,"byteLength":192,"target":34962,"byteStride":8},{"buffer":0,"byteOffset":5808,"byteLength":72,"target":34963},{"buffer":0,"byteOffset":5880,"byteLength":288,"target":34962,"byteStride":12},{"buffer":0,"byteOffset":6168,"byteLength":288,"target":34962,"byteStride":12},{"buffer":0,"byteOffset":6456,"byteLength":192,"target":34962,"byteStride":8},{"buffer":0,"byteOffset":6648,"byteLength":72,"target":34963},{"buffer":0,"byteOffset":6720,"byteLength":288,"target":34962,"byteStride":12},{"buffer":0,"byteOffset":7008,"byteLength":288,"target":34962,"byteStride":12},{"buffer":0,"byteOffset":7296,"byteLength":192,"target":34962,"byteStride":8},{"buffer":0,"byteOffset":7488,"byteLength":72,"target":34963},{"buffer":0,"byteOffset":7560,"byteLength":288,"target":34962,"byteStride":12},{"buffer":0,"byteOffset":7848,"byteLength":288,"target":34962,"byteStride":12},{"buffer":0,"byteOffset":8136,"byteLength":192,"target":34962,"byteStride":8},{"buffer":0,"byteOffset":8328,"byteLength":72,"target":34963},{"buffer":0,"byteOffset":8400,"byteLength":80},{"buffer":0,"byteOffset":8480,"byteLength":320},{"buffer":0,"byteOffset":8800,"byteLength":112},{"buffer":0,"byteOffset":8912,"byteLength":336},{"buffer":0,"byteOffset":9248,"byteLength":56},{"buffer":0,"byteOffset":9304,"byteLength":168},{"buffer":0,"byteOffset":9472,"byteLength":132},{"buffer":0,"byteOffset":9604,"byteLength":528},{"buffer":0,"byteOffset":10132,"byteLength":140},{"buffer":0,"byteOffset":10272,"byteLength":560},{"buffer":0,"byteOffset":10832,"byteLength":84},{"buffer":0,"byteOffset":10916,"byteLength":336},{"buffer":0,"byteOffset":11252,"byteLength":84},{"buffer":0,"byteOffset":11336,"byteLength":336},{"buffer":0,"byteOffset":11672,"byteLength":132},{"buffer":0,"byteOffset":11804,"byteLength":528},{"buffer":0,"byteOffset":12332,"byteLength":136},{"buffer":0,"byteOffset":12468,"byteLength":544},{"buffer":0,"byteOffset":13012,"byteLength":88},{"buffer":0,"byteOffset":13100,"byteLength":352},{"buffer":0,"byteOffset":13452,"byteLength":152},{"buffer":0,"byteOffset":13604,"byteLength":456},{"buffer":0,"byteOffset":14060,"byteLength":56},{"buffer":0,"byteOffset":14116,"byteLength":168},{"buffer":0,"byteOffset":14284,"byteLength":128},{"buffer":0,"byteOffset":14412,"byteLength":512},{"buffer":0,"byteOffset":14924,"byteLength":132},{"buffer":0,"byteOffset":15056,"byteLength":528},{"buffer":0,"byteOffset":15584,"byteLength":100},{"buffer":0,"byteOffset":15684,"byteLength":400},{"buffer":0,"byteOffset":16084,"byteLength":100},{"buffer":0,"byteOffset":16184,"byteLength":400},{"buffer":0,"byteOffset":16584,"byteLength":132},{"buffer":0,"byteOffset":16716,"byteLength":528},{"buffer":0,"byteOffset":17244,"byteLength":136},{"buffer":0,"byteOffset":17380,"byteLength":544}],"buffers":[{"byteLength":17924,"uri":"data:application/octet-stream;base64,"}],"accessors":[{"bufferView":0,"componentType":5126,"count":24,"max":[0.375,0.625,0.421875],"min":[-0.375,0,-0.328125],"type":"VEC3"},{"bufferView":1,"componentType":5126,"count":24,"max":[1,1,1],"min":[-1,-1,-1],"type":"VEC3"},{"bufferView":2,"componentType":5126,"count":24,"max":[0.3748779296875,0.4530029296875],"min":[0.0001220703125,0.2813720703125],"type":"VEC2"},{"bufferView":3,"componentType":5123,"count":36,"max":[23],"min":[0],"type":"SCALAR"},{"bufferView":4,"componentType":5126,"count":24,"max":[-0.375,0.5,0.109375],"min":[-0.5,0.1875,-0.203125],"type":"VEC3"},{"bufferView":5,"componentType":5126,"count":24,"max":[1,1,1],"min":[-1,-1,-1],"type":"VEC3"},{"bufferView":6,"componentType":5126,"count":24,"max":[0.1092529296875,0.0780029296875],"min":[0.0001220703125,0.0001220703125],"type":"VEC2"},{"bufferView":7,"componentType":5123,"count":36,"max":[23],"min":[0],"type":"SCALAR"},{"bufferView":8,"componentType":5126,"count":24,"max":[0.5,0.5,0.109375],"min":[0.375,0.1875,-0.203125],"type":"VEC3"},{"bufferView":9,"componentType":5126,"count":24,"max":[1,1,1],"min":[-1,-1,-1],"type":"VEC3"},{"bufferView":10,"componentType":5126,"count":24,"max":[0.1092529296875,0.0780029296875],"min":[0.0001220703125,0.0001220703125],"type":"VEC2"},{"bufferView":11,"componentType":5123,"count":36,"max":[23],"min":[0],"type":"SCALAR"},{"bufferView":12,"componentType":5126,"count":24,"max":[0.46875,1.3125,0.46875],"min":[-0.46875,0,-0.46875],"type":"VEC3"},{"bufferView":13,"componentType":5126,"count":24,"max":[1,1,1],"min":[-1,-1,-1],"type":"VEC3"},{"bufferView":14,"componentType":5126,"count":24,"max":[0.4686279296875,0.2811279296875],"min":[0.0001220703125,0.0001220703125],"type":"VEC2"},{"bufferView":15,"componentType":5123,"count":36,"max":[23],"min":[0],"type":"SCALAR"},{"bufferView":16,"componentType":5126,"count":24,"max":[0.09375,0,0.09375],"min":[-0.09375,-1.0625,-0.09375],"type":"VEC3"},{"bufferView":17,"componentType":5126,"count":24,"max":[1,1,1],"min":[-1,-1,-1],"type":"VEC3"},{"bufferView":18,"componentType":5126,"count":24,"max":[0.5623779296875,0.4373779296875],"min":[0.4688720703125,0.2813720703125],"type":"VEC2"},{"bufferView":19,"componentType":5123,"count":36,"max":[23],"min":[0],"type":"SCALAR"},{"bufferView":20,"componentType":5126,"count":24,"max":[0.09375,0,0.09375],"min":[-0.09375,-1.0625,-0.09375],"type":"VEC3"},{"bufferView":21,"componentType":5126,"count":24,"max":[1,1,1],"min":[-1,-1,-1],"type":"VEC3"},{"bufferView":22,"componentType":5126,"count":24,"max":[0.5623779296875,0.4373779296875],"min":[0.4688720703125,0.2813720703125],"type":"VEC2"},{"bufferView":23,"componentType":5123,"count":36,"max":[23],"min":[0],"type":"SCALAR"},{"bufferView":24,"componentType":5126,"count":24,"max":[0.09375,0,0.09375],"min":[-0.09375,-1.1875,-0.09375],"type":"VEC3"},{"bufferView":25,"componentType":5126,"count":24,"max":[1,1,1],"min":[-1,-1,-1],"type":"VEC3"},{"bufferView":26,"componentType":5126,"count":24,"max":[0.4686279296875,0.4530029296875],"min":[0.3751220703125,0.2813720703125],"type":"VEC2"},{"bufferView":27,"componentType":5123,"count":36,"max":[23],"min":[0],"type":"SCALAR"},{"bufferView":28,"componentType":5126,"count":24,"max":[0.09375,0,0.09375],"min":[-0.09375,-1.1875,-0.09375],"type":"VEC3"},{"bufferView":29,"componentType":5126,"count":24,"max":[1,1,1],"min":[-1,-1,-1],"type":"VEC3"},{"bufferView":30,"componentType":5126,"count":24,"max":[0.4686279296875,0.4530029296875],"min":[0.3751220703125,0.2813720703125],"type":"VEC2"},{"bufferView":31,"componentType":5123,"count":36,"max":[23],"min":[0],"type":"SCALAR"},{"bufferView":32,"componentType":5126,"count":24,"max":[0.09375,0,0.09375],"min":[-0.09375,-1.0625,-0.09375],"type":"VEC3"},{"bufferView":33,"componentType":5126,"count":24,"max":[1,1,1],"min":[-1,-1,-1],"type":"VEC3"},{"bufferView":34,"componentType":5126,"count":24,"max":[0.5623779296875,0.4373779296875],"min":[0.4688720703125,0.2813720703125],"type":"VEC2"},{"bufferView":35,"componentType":5123,"count":36,"max":[23],"min":[0],"type":"SCALAR"},{"bufferView":36,"componentType":5126,"count":24,"max":[0.09375,0,0.09375],"min":[-0.09375,-1.0625,-0.09375],"type":"VEC3"},{"bufferView":37,"componentType":5126,"count":24,"max":[1,1,1],"min":[-1,-1,-1],"type":"VEC3"},{"bufferView":38,"componentType":5126,"count":24,"max":[0.5623779296875,0.4373779296875],"min":[0.4688720703125,0.2813720703125],"type":"VEC2"},{"bufferView":39,"componentType":5123,"count":36,"max":[23],"min":[0],"type":"SCALAR"},{"bufferView":40,"componentType":5126,"count":20,"max":[6],"min":[0],"type":"SCALAR"},{"bufferView":41,"componentType":5126,"count":20,"max":[0,0.04858827963471413,0,0.9999992251396179],"min":[0,-0.02137865498661995,0,0.9988188743591309],"type":"VEC4"},{"bufferView":42,"componentType":5126,"count":28,"max":[6],"min":[0],"type":"SCALAR"},{"bufferView":43,"componentType":5126,"count":28,"max":[0,1.317968726158142,0],"min":[0,0.9665625095367432,0],"type":"VEC3"},{"bufferView":44,"componentType":5126,"count":14,"max":[6],"min":[0],"type":"SCALAR"},{"bufferView":45,"componentType":5126,"count":14,"max":[1.0413999557495117,1.0319000482559204,1.0211000442504883],"min":[0.9467999935150146,0.9645000100135803,0.9387000203132629],"type":"VEC3"},{"bufferView":46,"componentType":5126,"count":33,"max":[6],"min":[0],"type":"SCALAR"},{"bufferView":47,"componentType":5126,"count":33,"max":[0.2308989018201828,0,0,1],"min":[-0.03363487496972084,0,0,0.9729777574539185],"type":"VEC4"},{"bufferView":48,"componentType":5126,"count":35,"max":[6],"min":[0],"type":"SCALAR"},{"bufferView":49,"componentType":5126,"count":35,"max":[0.23138710856437683,0,0,0.9999954700469971],"min":[-0.034027349203825,0,0,0.9728617668151855],"type":"VEC4"},{"bufferView":50,"componentType":5126,"count":21,"max":[6],"min":[0],"type":"SCALAR"},{"bufferView":51,"componentType":5126,"count":21,"max":[0,0,0.08626463264226913,0.9999992847442627],"min":[0,0,-0.02923010103404522,0.9962722659111023],"type":"VEC4"},{"bufferView":52,"componentType":5126,"count":21,"max":[6],"min":[0],"type":"SCALAR"},{"bufferView":53,"componentType":5126,"count":21,"max":[0,0,0.02923010103404522,0.9999878406524658],"min":[0,0,-0.08626463264226913,0.9962722659111023],"type":"VEC4"},{"bufferView":54,"componentType":5126,"count":33,"max":[6],"min":[0],"type":"SCALAR"},{"bufferView":55,"componentType":5126,"count":33,"max":[0.03363487496972084,0,0,1],"min":[-0.2308989018201828,0,0,0.9729777574539185],"type":"VEC4"},{"bufferView":56,"componentType":5126,"count":34,"max":[6],"min":[0],"type":"SCALAR"},{"bufferView":57,"componentType":5126,"count":34,"max":[0.034027349203825,0,0,0.9999954700469971],"min":[-0.23138710856437683,0,0,0.9728617668151855],"type":"VEC4"},{"bufferView":58,"componentType":5126,"count":22,"max":[2],"min":[0],"type":"SCALAR"},{"bufferView":59,"componentType":5126,"count":22,"max":[0,0.04858827963471413,0,0.9999997615814209],"min":[0,-0.021116914227604866,0,0.9988188743591309],"type":"VEC4"},{"bufferView":60,"componentType":5126,"count":38,"max":[2],"min":[0],"type":"SCALAR"},{"bufferView":61,"componentType":5126,"count":38,"max":[0,1.3181250095367432,0],"min":[0,0.9668750166893005,0],"type":"VEC3"},{"bufferView":62,"componentType":5126,"count":14,"max":[2],"min":[0],"type":"SCALAR"},{"bufferView":63,"componentType":5126,"count":14,"max":[1.0413999557495117,1.0319000482559204,1.0211000442504883],"min":[0.9467999935150146,0.9645000100135803,0.9387000203132629],"type":"VEC3"},{"bufferView":64,"componentType":5126,"count":32,"max":[2],"min":[0],"type":"SCALAR"},{"bufferView":65,"componentType":5126,"count":32,"max":[0.2308989018201828,0,0,0.9999987483024597],"min":[-0.03394013270735741,0,0,0.9729777574539185],"type":"VEC4"},{"bufferView":66,"componentType":5126,"count":33,"max":[2],"min":[0],"type":"SCALAR"},{"bufferView":67,"componentType":5126,"count":33,"max":[0.23140832781791687,0,0,0.9999953508377075],"min":[-0.03394013270735741,0,0,0.9728567004203796],"type":"VEC4"},{"bufferView":68,"componentType":5126,"count":25,"max":[2],"min":[0],"type":"SCALAR"},{"bufferView":69,"componentType":5126,"count":25,"max":[0,0,0.08628636598587036,0.9999992251396179],"min":[0,0,-0.02957901544868946,0.9962703585624695],"type":"VEC4"},{"bufferView":70,"componentType":5126,"count":25,"max":[2],"min":[0],"type":"SCALAR"},{"bufferView":71,"componentType":5126,"count":25,"max":[0,0,0.02957901544868946,0.9999876022338867],"min":[0,0,-0.08628636598587036,0.9962703585624695],"type":"VEC4"},{"bufferView":72,"componentType":5126,"count":33,"max":[2],"min":[0],"type":"SCALAR"},{"bufferView":73,"componentType":5126,"count":33,"max":[0.03394013270735741,0,0,0.9999987483024597],"min":[-0.2308989018201828,0,0,0.9729777574539185],"type":"VEC4"},{"bufferView":74,"componentType":5126,"count":34,"max":[2],"min":[0],"type":"SCALAR"},{"bufferView":75,"componentType":5126,"count":34,"max":[0.03394013270735741,0,0,0.9999953508377075],"min":[-0.23140832781791687,0,0,0.9728567004203796],"type":"VEC4"}],"materials":[{"pbrMetallicRoughness":{"metallicFactor":0,"roughnessFactor":1,"baseColorTexture":{"index":0}},"alphaMode":"MASK","alphaCutoff":0.05,"doubleSided":true}],"textures":[{"sampler":0,"source":0,"name":"squid.png"}],"samplers":[{"magFilter":9728,"minFilter":9728,"wrapS":33071,"wrapT":33071}],"images":[{"mimeType":"image/png","uri":"data:image/png;base64,"}],"meshes":[{"primitives":[{"mode":4,"attributes":{"POSITION":0,"NORMAL":1,"TEXCOORD_0":2},"indices":3,"material":0}]},{"primitives":[{"mode":4,"attributes":{"POSITION":4,"NORMAL":5,"TEXCOORD_0":6},"indices":7,"material":0}]},{"primitives":[{"mode":4,"attributes":{"POSITION":8,"NORMAL":9,"TEXCOORD_0":10},"indices":11,"material":0}]},{"primitives":[{"mode":4,"attributes":{"POSITION":12,"NORMAL":13,"TEXCOORD_0":14},"indices":15,"material":0}]},{"primitives":[{"mode":4,"attributes":{"POSITION":16,"NORMAL":17,"TEXCOORD_0":18},"indices":19,"material":0}]},{"primitives":[{"mode":4,"attributes":{"POSITION":20,"NORMAL":21,"TEXCOORD_0":22},"indices":23,"material":0}]},{"primitives":[{"mode":4,"attributes":{"POSITION":24,"NORMAL":25,"TEXCOORD_0":26},"indices":27,"material":0}]},{"primitives":[{"mode":4,"attributes":{"POSITION":28,"NORMAL":29,"TEXCOORD_0":30},"indices":31,"material":0}]},{"primitives":[{"mode":4,"attributes":{"POSITION":32,"NORMAL":33,"TEXCOORD_0":34},"indices":35,"material":0}]},{"primitives":[{"mode":4,"attributes":{"POSITION":36,"NORMAL":37,"TEXCOORD_0":38},"indices":39,"material":0}]}],"animations":[{"name":"idle","samplers":[{"input":40,"output":41,"interpolation":"LINEAR"},{"input":42,"output":43,"interpolation":"LINEAR"},{"input":44,"output":45,"interpolation":"LINEAR"},{"input":46,"output":47,"interpolation":"LINEAR"},{"input":48,"output":49,"interpolation":"LINEAR"},{"input":50,"output":51,"interpolation":"LINEAR"},{"input":52,"output":53,"interpolation":"LINEAR"},{"input":54,"output":55,"interpolation":"LINEAR"},{"input":56,"output":57,"interpolation":"LINEAR"}],"channels":[{"sampler":0,"target":{"node":25,"path":"rotation"}},{"sampler":1,"target":{"node":25,"path":"translation"}},{"sampler":2,"target":{"node":25,"path":"scale"}},{"sampler":3,"target":{"node":6,"path":"rotation"}},{"sampler":4,"target":{"node":9,"path":"rotation"}},{"sampler":5,"target":{"node":12,"path":"rotation"}},{"sampler":6,"target":{"node":15,"path":"rotation"}},{"sampler":7,"target":{"node":18,"path":"rotation"}},{"sampler":8,"target":{"node":21,"path":"rotation"}}]},{"name":"swim","samplers":[{"input":58,"output":59,"interpolation":"LINEAR"},{"input":60,"output":61,"interpolation":"LINEAR"},{"input":62,"output":63,"interpolation":"LINEAR"},{"input":64,"output":65,"interpolation":"LINEAR"},{"input":66,"output":67,"interpolation":"LINEAR"},{"input":68,"output":69,"interpolation":"LINEAR"},{"input":70,"output":71,"interpolation":"LINEAR"},{"input":72,"output":73,"interpolation":"LINEAR"},{"input":74,"output":75,"interpolation":"LINEAR"}],"channels":[{"sampler":0,"target":{"node":25,"path":"rotation"}},{"sampler":1,"target":{"node":25,"path":"translation"}},{"sampler":2,"target":{"node":25,"path":"scale"}},{"sampler":3,"target":{"node":6,"path":"rotation"}},{"sampler":4,"target":{"node":9,"path":"rotation"}},{"sampler":5,"target":{"node":12,"path":"rotation"}},{"sampler":6,"target":{"node":15,"path":"rotation"}},{"sampler":7,"target":{"node":18,"path":"rotation"}},{"sampler":8,"target":{"node":21,"path":"rotation"}}]}]}